<?xml version="1.0" encoding="UTF-8" standalone="no"?>
<!-- Created with Inkscape (http://www.inkscape.org/) -->

<svg
   xmlns:dc="http://purl.org/dc/elements/1.1/"
   xmlns:cc="http://creativecommons.org/ns#"
   xmlns:rdf="http://www.w3.org/1999/02/22-rdf-syntax-ns#"
   xmlns:svg="http://www.w3.org/2000/svg"
   xmlns="http://www.w3.org/2000/svg"
   xmlns:sodipodi="http://sodipodi.sourceforge.net/DTD/sodipodi-0.dtd"
   xmlns:inkscape="http://www.inkscape.org/namespaces/inkscape"
   width="210mm"
   height="297mm"
   viewBox="0 0 210 297"
   version="1.1"
   id="svg8"
   inkscape:export-filename="C:\Users\Loki the Trickster\bitmap.png"
   inkscape:export-xdpi="96"
   inkscape:export-ydpi="96"
   inkscape:version="0.92.4 (5da689c313, 2019-01-14)"
   sodipodi:docname="lol.svg">
  <defs
     id="defs2" />
  <sodipodi:namedview
     id="base"
     pagecolor="#ffffff"
     bordercolor="#666666"
     borderopacity="1.0"
     inkscape:pageopacity="0.0"
     inkscape:pageshadow="2"
     inkscape:zoom="0.37123106"
     inkscape:cx="-15.204732"
     inkscape:cy="100.8252"
     inkscape:document-units="mm"
     inkscape:current-layer="layer1"
     showgrid="false"
     showborder="false"
     inkscape:window-width="1920"
     inkscape:window-height="1001"
     inkscape:window-x="-9"
     inkscape:window-y="-9"
     inkscape:window-maximized="1" />
  <metadata
     id="metadata5">
    <rdf:RDF>
      <cc:Work
         rdf:about="">
        <dc:format>image/svg+xml</dc:format>
        <dc:type
           rdf:resource="http://purl.org/dc/dcmitype/StillImage" />
        <dc:title></dc:title>
      </cc:Work>
    </rdf:RDF>
  </metadata>
  <g
     inkscape:label="Layer 1"
     inkscape:groupmode="layer"
     id="layer1">
    <path
       style="fill:#000000;stroke-width:0.26458335"
       d="m -119.5668,326.12244 c 0.54346,-1.41624 6.18383,-9.35581 6.83578,-9.62228 0.42444,-0.17348 0.20589,-0.57327 -0.31339,-0.57327 -0.29104,0 -0.52916,-0.0635 -0.52916,-0.14108 0,-0.50684 1.43711,-2.79194 2.24083,-3.56308 l 0.96518,-0.92605 -0.74311,-0.30847 -0.74311,-0.30846 2.40436,-2.41054 2.40437,-2.41054 -1.20137,-0.3025 -1.20137,-0.30251 1.48529,-1.34411 c 1.45981,-1.32105 2.47277,-1.96107 4.04622,-2.5565 l 0.79375,-0.30038 -1.32292,-0.39355 c -0.7276,-0.21645 -1.37299,-0.44209 -1.4342,-0.50143 -0.41911,-0.4063 3.06781,-2.90637 4.43495,-3.1798 1.23226,-0.24645 1.24579,-0.53757 0.0436,-0.9383 -0.58299,-0.19433 -1.08039,-0.47238 -1.10533,-0.61791 -0.0753,-0.43959 2.703,-1.96768 4.66691,-2.56681 1.94462,-0.59323 1.94451,-0.57656 0.009,-1.28867 l -0.79375,-0.29198 0.9855,-0.85895 c 1.14083,-0.99433 2.53428,-1.47588 4.27071,-1.47588 0.67434,0 1.22607,-0.0934 1.22607,-0.20753 0,-0.40282 -1.51132,-1.09378 -2.2721,-1.03879 -0.71129,0.0514 -0.77693,-0.0207 -0.85273,-0.93649 -0.096,-1.16 -0.27638,-1.21147 -1.28664,-0.36708 -1.91095,1.59721 -6.33167,3.37894 -7.38282,2.97558 -0.48259,-0.18519 -0.46899,-0.94267 0.0288,-1.60074 0.86311,-1.14113 0.25416,-1.064 -2.46046,0.31165 -1.7943,0.90927 -3.3212,1.49694 -4.12472,1.58751 l -1.27579,0.1438 0.19081,-1.52717 0.19081,-1.52716 -1.42391,1.07488 c -2.55037,1.92522 -5.58093,3.00798 -7.24801,2.58957 l -0.6715,-0.16853 0.86458,-1.56072 c 0.47551,-0.85839 0.78741,-1.63787 0.69311,-1.73218 -0.0943,-0.0943 -0.6292,0.11279 -1.18865,0.46021 -2.05892,1.27861 -5.98848,2.57256 -7.83021,2.57839 -1.15785,0.004 -1.27425,-0.39412 -0.49319,-1.68543 0.27445,-0.45373 0.57399,-1.0735 0.66563,-1.37724 0.1584,-0.52502 0.0913,-0.51526 -1.3589,0.19778 -0.83903,0.41253 -2.16685,0.86941 -2.95069,1.01529 -1.8839,0.35061 -5.05712,0.34468 -5.05712,-0.009 0,-0.15107 0.46872,-1.01188 1.0416,-1.91292 0.57288,-0.90103 1.01026,-1.66957 0.97196,-1.70787 -0.0383,-0.0383 -0.53908,0.15718 -1.11286,0.4344 -2.21486,1.0701 -8.77172,1.82954 -9.24095,1.07032 -0.0932,-0.15075 0.19747,-0.84578 0.64585,-1.54452 0.44838,-0.69874 0.81523,-1.33394 0.81523,-1.41155 0,-0.0776 -0.56554,-0.0323 -1.25677,0.10071 -1.98571,0.38208 -8.53281,-0.24892 -8.53281,-0.82239 0,-0.11558 0.23378,-0.50734 0.51951,-0.87059 l 0.51951,-0.66045 -2.17316,-0.14902 c -2.3312,-0.15987 -4.50472,-0.71686 -5.35275,-1.37172 -0.52009,-0.40162 -0.51949,-0.40939 0.0707,-0.91033 0.81508,-0.69178 0.75413,-0.8173 -0.39687,-0.81736 -3.3216,-1.8e-4 -16.99948,-2.95899 -16.99948,-3.67735 0,-0.65235 7.7019,-2.81127 14.2875,-4.00493 1.81901,-0.32971 3.35964,-0.6438 3.42362,-0.69799 0.064,-0.0542 -0.14438,-0.28113 -0.46302,-0.50431 -0.31865,-0.22319 -0.57935,-0.50499 -0.57935,-0.62624 0,-0.67374 5.92895,-2.37181 7.1586,-2.05025 0.61772,0.16153 0.69272,-0.39685 0.11744,-0.8743 -0.61013,-0.50636 -0.47311,-0.97709 0.33073,-1.13622 1.93481,-0.38302 6.35477,-0.76454 7.63105,-0.6587 0.78701,0.0653 1.43093,0.0801 1.43093,0.033 0,-0.0471 -0.41672,-0.63155 -0.92605,-1.2988 -0.50932,-0.66725 -0.92604,-1.32086 -0.92604,-1.45246 0,-1.05851 8.54276,-0.31173 9.99442,0.87367 0.76368,0.62362 0.54889,-0.0983 -0.45609,-1.53299 -0.58941,-0.84142 -1.07166,-1.6887 -1.07166,-1.88286 0,-0.26233 0.50045,-0.35301 1.94826,-0.35301 2.48365,0 4.39075,0.36421 6.16832,1.17801 0.77463,0.35464 1.40842,0.57171 1.40842,0.48239 0,-0.0893 -0.36107,-0.80219 -0.80239,-1.58416 -0.44131,-0.78196 -0.72252,-1.55097 -0.6249,-1.70891 0.43548,-0.70462 6.71523,0.80615 9.04919,2.17704 0.48126,0.28268 0.92774,0.51396 0.99218,0.51396 0.2918,0 0.0531,-0.62537 -0.71555,-1.87456 -1.02279,-1.66224 -0.79626,-1.92287 1.48549,-1.70906 1.901,0.17813 4.42895,1.3042 5.88897,2.62324 0.57887,0.52298 1.11584,0.88752 1.19328,0.81009 0.0774,-0.0774 0.0384,-0.58131 -0.0866,-1.11972 -0.38557,-1.65969 -0.3196,-1.90499 0.51228,-1.90499 0.93193,0 3.16744,0.75645 5.04047,1.70559 1.6677,0.84508 2.28182,0.62159 1.60506,-0.58414 -0.34631,-0.617 -0.98881,-0.89296 -4.81816,-2.06944 -2.43022,-0.74663 -4.60014,-1.50819 -4.82205,-1.69236 -0.57514,-0.47732 -0.50753,-0.83203 0.38291,-2.00887 0.43251,-0.57163 0.7897,-1.11097 0.79375,-1.19854 0.004,-0.0876 -0.91538,-0.23297 -2.04316,-0.3231 -3.92818,-0.31394 -9.09561,-2.2421 -10.50837,-3.92107 -0.64407,-0.76544 -0.66788,-0.87187 -0.2816,-1.25907 0.23206,-0.23263 0.97508,-0.60155 1.65115,-0.81983 0.67607,-0.21828 1.26554,-0.51594 1.30994,-0.66146 0.0444,-0.14552 -1.19714,-0.5769 -2.759,-0.95862 -4.9768,-1.21633 -8.79285,-2.98411 -8.79285,-4.07328 0,-0.19506 0.6753,-0.86908 1.50067,-1.49783 0.82537,-0.62876 1.53909,-1.26225 1.58605,-1.40777 0.0515,-0.15947 -0.8269,-0.28981 -2.21095,-0.32807 -2.70013,-0.0747 -5.649,-0.81978 -7.81665,-1.97513 -1.55425,-0.8284 -3.37787,-2.56244 -3.37787,-3.21193 0,-0.19483 0.50601,-0.50541 1.12448,-0.69017 2.02873,-0.60608 3.9026,-1.36928 3.9026,-1.58947 0,-0.11887 -0.44364,-0.29936 -0.98586,-0.40108 -3.59764,-0.67492 -10.24596,-3.59895 -12.27313,-5.39791 -1.4283,-1.2675 -1.24279,-1.60681 1.30131,-2.38021 0.97417,-0.29614 2.004,-0.70894 2.2885,-0.91732 0.48111,-0.35238 0.41637,-0.39985 -0.92604,-0.67883 -2.70448,-0.56205 -5.7163,-2.25762 -8.94262,-5.03442 -1.04137,-0.89628 -1.89341,-1.80558 -1.89341,-2.02065 0,-0.46345 0.60592,-0.71386 3.51306,-1.4518 2.27618,-0.57778 3.16484,-1.03743 2.02996,-1.04996 -1.05188,-0.0116 -4.04958,-1.41809 -6.50586,-3.05244 -2.33294,-1.55228 -6.18091,-5.03006 -6.18091,-5.58627 0,-0.33128 1.85759,-1.00621 3.57188,-1.29779 1.57597,-0.26805 1.58909,-0.34674 0.2097,-1.25757 -2.34638,-1.54937 -9.07325,-8.74691 -9.07325,-9.7081 0,-0.12066 0.64383,-0.36347 1.43073,-0.53957 l 1.43073,-0.32019 -1.56865,-1.45229 c -2.31856,-2.14658 -5.26156,-6.77895 -5.26156,-8.28185 0,-0.38344 0.24444,-0.4989 1.19185,-0.56301 l 1.19184,-0.0806 -1.87913,-2.24896 c -6.11919,-7.32348 -14.52212,-19.76091 -13.82307,-20.45995 0.73052,-0.73052 16.56467,7.76157 22.37045,11.99761 0.99397,0.72522 1.86833,1.31859 1.94301,1.31859 0.0747,0 0.0568,-0.5954 -0.0397,-1.32312 l -0.17552,-1.32313 0.89401,0.16996 c 2.45564,0.46684 6.79698,2.8086 8.92564,4.81458 0.48833,0.46019 0.92129,0.83671 0.96214,0.83671 0.0408,0 0.15891,-0.56554 0.26237,-1.25677 0.10345,-0.69122 0.24251,-1.34518 0.30902,-1.45324 0.45357,-0.7369 9.99878,6.37762 11.1333,8.29821 0.58456,0.98959 0.86508,0.96481 0.86508,-0.0764 0,-1.76107 0.57025,-4.18886 0.9839,-4.18886 1.80265,0 8.71491,7.79131 9.6341,10.8593 0.17252,0.57582 0.4002,1.04695 0.50594,1.04695 0.10575,0 0.33226,-0.98227 0.50337,-2.18281 0.17111,-1.20055 0.42845,-2.63277 0.57188,-3.18271 l 0.26077,-0.9999 0.80795,0.47073 c 1.30167,0.75838 5.29909,5.12151 6.38616,6.97041 0.55052,0.93632 1.1302,2.20842 1.28818,2.82688 0.15798,0.61847 0.38884,1.12448 0.51302,1.12448 0.12418,0 0.41132,-0.68461 0.63809,-1.52135 0.22677,-0.83675 0.53253,-1.96784 0.67947,-2.51354 0.14694,-0.54571 0.43184,-0.99219 0.63312,-0.99219 1.57725,0 6.33225,7.38632 7.82371,12.1532 0.41073,1.31274 0.47583,1.38893 0.74962,0.87736 0.1649,-0.30813 0.47957,-1.41474 0.69927,-2.45915 0.2197,-1.0444 0.46486,-2.00476 0.54481,-2.13412 0.31253,-0.50568 0.99868,-0.1793 2.39061,1.13713 2.29622,2.17167 3.92138,5.92475 4.47768,10.3406 0.0874,0.69404 0.2592,1.19995 0.3817,1.12424 0.1225,-0.0757 0.67538,-0.91145 1.22862,-1.85721 0.55324,-0.94575 1.1459,-1.71955 1.31701,-1.71955 0.6038,0 2.20662,2.1104 3.26761,4.30242 0.59061,1.22018 1.07383,2.35865 1.07383,2.52992 0,0.22221 -0.9473,0.31141 -3.30729,0.31141 h -3.3073 v 9.12813 9.12812 h 3.3073 3.30729 v 19.57917 19.57917 h -3.30729 -3.3073 v 9.26041 9.26042 h 15.6101 15.61042 v -9.26042 -9.26041 h -3.30729 -3.3073 V 251.7092 c 0,-10.82517 0.0571,-12.82696 0.3566,-12.50157 0.19613,0.21309 7.29302,10.35891 15.77086,22.54628 l 15.41426,22.15886 h 12.67185 12.67185 v -29.23646 -29.23646 h 3.30729 3.307298 v -9.12812 -9.12813 h -3.457418 -3.45741 l 0.18496,-0.59531 c 0.74912,-2.41111 3.42295,-6.54844 4.23206,-6.54844 0.19679,0 0.84617,0.83622 1.44308,1.85826 0.5969,1.02204 1.197468,1.78892 1.334588,1.70417 0.13711,-0.0847 0.25106,-0.65307 0.25321,-1.26294 0.0112,-3.19117 1.8656,-7.60607 4.20519,-10.01189 1.99931,-2.0559 2.53025,-2.06073 2.93612,-0.0267 0.71069,3.56169 1.10819,4.39805 1.44525,3.04088 0.74966,-3.01852 4.06045,-9.09794 6.23759997,-11.45374 1.76077003,-1.90526 2.09299003,-1.76726 2.80533003,1.16528 0.31228,1.28557 0.67878,2.4484 0.81445,2.58407 0.1525,0.1525 0.4091,-0.33697 0.67216,-1.28215 0.54368,-1.95345 2.16891,-4.46255 4.39461,-6.78458 1.67648,-1.74904 3.5918,-3.3432 4.01672,-3.3432 0.10992,0 0.41074,1.42875 0.66848,3.175 0.25773,1.74625 0.56665,3.175 0.68648,3.175 0.11983,0 0.21787,-0.1341 0.21787,-0.298 0,-0.52846 1.56671,-3.40022 2.69847,-4.94628 2.11022,-2.88268 6.22597,-6.6576 7.26239,-6.66098 0.31337,-0.001 0.88706,2.70739 0.88706,4.18787 0,0.46102 0.0329,0.83822 0.0732,0.83822 0.0403,0 1.02254,-0.92976 2.18281,-2.06613 2.9922,-2.93055 8.49989,-6.9297 9.54369,-6.9297 0.18511,0 0.39864,0.56114 0.50341,1.32292 0.10007,0.7276 0.24099,1.32291 0.31316,1.32291 0.0722,0 0.79696,-0.59337 1.61065,-1.31861 1.74493,-1.55523 6.3168,-3.94389 7.96791,-4.16298 l 1.16047,-0.15399 -0.18883,1.25919 c -0.10385,0.69255 -0.0903,1.21642 0.0302,1.16414 0.12044,-0.0523 1.76679,-1.12399 3.65857,-2.38159 7.65387,-5.08812 18.98196,-11.06586 20.39071,-10.76001 1.18296,0.25683 -7.12308,12.69329 -13.67025,20.46817 -1.00412,1.19241 -1.82567,2.23163 -1.82567,2.30937 0,0.0778 0.23621,0.0796 0.52492,0.004 0.28871,-0.0755 0.83823,-0.0586 1.22116,0.0375 0.62051,0.15574 0.67788,0.26648 0.52754,1.01823 -0.31124,1.55616 -2.37346,4.76379 -4.4463,6.91588 -2.16556,2.24836 -2.18538,2.37699 -0.41242,2.67653 0.54868,0.0927 0.9976,0.26534 0.9976,0.38365 0,0.96977 -7.49674,8.92815 -9.34349,9.91886 -0.5364,0.28775 -0.97526,0.59459 -0.97526,0.68187 0,0.0873 0.79197,0.30461 1.75993,0.48296 2.3406,0.43128 3.35757,0.95594 3.03203,1.56423 -0.37461,0.69996 -3.14342,3.25959 -5.01162,4.63299 -1.96152,1.44201 -5.49532,3.26608 -6.80249,3.51131 -0.50344,0.0944 -0.91535,0.26449 -0.91535,0.37787 0,0.17603 2.11633,0.81988 4.85001,1.4755 1.29497,0.31058 1.18947,0.88022 -0.44476,2.40135 -2.87973,2.68045 -7.1205,5.09744 -9.68236,5.51839 -1.06737,0.17538 -1.13105,0.22617 -0.68894,0.54944 0.26792,0.19591 1.2734,0.61237 2.2344,0.92547 0.961,0.31309 1.92587,0.74292 2.14415,0.95517 0.35104,0.34135 0.25937,0.50914 -0.79375,1.45284 -2.13578,1.91388 -10.44124,5.50681 -12.7296,5.50681 -1.3762,0 -0.004,0.8206 2.89274,1.7298 0.77436,0.24306 1.47493,0.61653 1.55682,0.82994 0.22732,0.59237 -1.63269,2.32747 -3.6074,3.36515 -2.11295,1.11033 -4.38902,1.69942 -7.55944,1.95652 l -2.38125,0.19311 1.6653,1.30591 c 1.18269,0.92746 1.64275,1.45633 1.5875,1.82495 -0.16264,1.08506 -5.56073,3.38251 -9.86686,4.19937 -0.94818,0.17987 -1.68347,0.4485 -1.63398,0.59697 0.0495,0.14846 0.67539,0.48559 1.39089,0.74917 1.83929,0.67756 2.15638,1.03755 1.62637,1.84645 -1.07766,1.64471 -7.93056003,4.15682 -11.3396,4.15682 -0.85447,0 -1.55358,0.10269 -1.55358,0.22821 0,0.12551 0.35719,0.67766 0.79375,1.227 1.11047,1.39735 1.03082,1.81897 -0.46302,2.45067 -0.69122,0.29231 -1.49489,0.59595 -1.78594,0.67476 -0.29104,0.0788 -1.90804,0.56652 -3.59334,1.08378 -2.62477,0.80562 -3.11034,1.0418 -3.3861,1.64703 -0.50167,1.10104 -0.01,1.28622 1.45718,0.54846 2.07508,-1.04368 4.45913,-1.82392 5.28506,-1.72966 0.82109,0.0937 0.82387,0.10688 0.46424,2.19541 l -0.18074,1.04961 1.09419,-0.93659 c 1.44169,-1.23403 3.55477,-2.28385 5.35846997,-2.66218 1.45886003,-0.306 2.89375003,-0.15903 2.89375003,0.29638 0,0.13308 -0.37577,0.84645 -0.83504,1.58527 -0.45927,0.73881 -0.77436,1.40398 -0.7002,1.47814 0.0742,0.0742 1.01548,-0.28239 2.09182,-0.79235 2.19329,-1.03916 5.62115,-1.99394 7.15866,-1.99394 1.22991,0 1.3075,0.39287 0.35455,1.79525 -0.3638,0.53538 -0.66145,1.1799 -0.66145,1.43225 0,0.42186 0.072,0.41635 0.8937,-0.0685 0.49153,-0.29001 1.71192,-0.70065 2.71197,-0.91252 1.97828,-0.41913 5.54136,-0.52734 5.75918,-0.17491 0.0746,0.12073 -0.39712,1.0137 -1.04829,1.98437 -0.65118,0.97068 -1.11601,1.76487 -1.03295,1.76487 0.083,0 0.47692,-0.16854 0.87526,-0.37453 1.71255,-0.8856 7.76901,-1.58219 9.14969,-1.05237 0.60291,0.23135 0.52663,0.55156 -0.45843,1.92447 l -0.87695,1.22222 3.05976,0.0327 c 2.70076,0.0289 6.10738,0.43702 6.69885,0.80257 0.11382,0.0703 -0.0333,0.46535 -0.327,0.87778 -0.29368,0.41243 -0.53288,0.79102 -0.53155,0.84132 10e-4,0.0503 0.74031,0.11709 1.6422,0.14843 1.75437,0.061 4.76245,0.8607 5.63143,1.49717 0.52549,0.38487 0.52488,0.39213 -0.0863,1.04275 l -0.6155,0.65518 1.40925,0.18674 c 5.33159,0.70649 16.62279,3.66317 16.62279,4.35278 0,0.60927 -9.63064,2.83279 -15.08125,3.48196 -1.52797,0.18198 -2.8282,0.36948 -2.88941,0.41668 -0.0612,0.0472 0.15212,0.36618 0.47407,0.70888 l 0.58535,0.62308 -1.26782,0.53743 c -1.62054,0.68695 -3.71537,1.12474 -5.38188,1.12474 -1.34934,0 -1.60335,0.22083 -0.91302,0.79375 0.51617,0.42838 0.50613,0.95979 -0.022,1.16244 -0.98168,0.37671 -6.69226,0.71955 -8.0065,0.48067 -0.75033,-0.13637 -1.36425,-0.20181 -1.36425,-0.14541 0,0.0564 0.41607,0.70742 0.92461,1.44669 0.50853,0.73927 0.85869,1.45078 0.77813,1.58112 -0.22708,0.36743 -4.27808,0.27077 -6.26063,-0.14937 -0.97888,-0.20745 -2.31833,-0.6154 -2.97656,-0.90657 -0.65824,-0.29117 -1.1968,-0.45966 -1.1968,-0.37443 0,0.0852 0.47625,0.90906 1.05834,1.83072 0.58208,0.92166 1.05833,1.75381 1.05833,1.84921 0,0.0954 -1.22039,0.11477 -2.71198,0.043 -2.81222,-0.13524 -5.35199,-0.81542 -6.32176,-1.69305 -0.4623,-0.41837 -0.49118,-0.41487 -0.48991,0.0594 8e-4,0.27722 0.29469,0.98028 0.65321,1.56236 0.35851,0.58209 0.65556,1.20717 0.6601,1.38907 0.0243,0.9755 -5.65582,-0.36386 -8.7003,-2.05149 -0.78788,-0.43674 -1.48692,-0.73967 -1.55341,-0.67318 -0.0665,0.0665 0.25461,0.78624 0.71355,1.59944 0.45894,0.8132 0.75469,1.60758 0.65722,1.76529 -0.31418,0.50834 -3.16400003,0.0598 -4.93288,-0.77643 -0.90973,-0.43006 -2.23393,-1.29753 -2.94266,-1.92772 l -1.28861,-1.1458 0.19011,1.63802 0.19011,1.63801 -0.88587,-0.003 c -0.96654,-0.004 -4.20927,-1.33555 -5.95004,-2.44412 -0.60248,-0.38367 -1.16292,-0.63007 -1.24544,-0.54756 -0.0825,0.0825 0.0937,0.62768 0.3915,1.21148 0.65684,1.28752 0.37399,1.60362 -1.225648,1.36972 -1.34641,-0.19687 -4.65054,-1.72962 -5.95404,-2.76201 -1.18698,-0.94011 -1.322,-0.96528 -1.322,-0.24647 0,0.93647 -0.50568,1.61322 -1.07129,1.43371 -0.48289,-0.15327 -2.10371,0.57942 -2.10371,0.95097 0,0.0942 0.74764,0.23133 1.66143,0.30468 1.73367,0.13916 3.42361,0.83092 4.24278,1.73674 0.53286,0.58922 0.43857,0.70238 -0.80795,0.96971 -1.35795,0.29123 -1.24978,0.59912 0.37661,1.07193 2.6262,0.76345 5.581218,2.47308 4.92487,2.84928 -0.1162,0.0666 -0.65886,0.26539 -1.20591,0.44175 -1.14079,0.36777 -1.10459,0.66514 0.11055,0.90817 1.462258,0.29245 4.842018,2.77613 4.391198,3.22695 -0.0853,0.0853 -0.73066,0.30844 -1.4342,0.49594 l -1.27917,0.3409 0.79375,0.30587 c 1.56757,0.60406 2.60172,1.23653 3.87008,2.36688 0.70911,0.63195 1.28929,1.25244 1.28929,1.37887 0,0.12642 -0.48061,0.35928 -1.06803,0.51745 l -1.06804,0.2876 1.13419,0.9431 c 0.62379,0.5187 1.70484,1.61426 2.40232,2.43458 l 1.26814,1.49149 -0.67355,0.27813 -0.67356,0.27812 0.95039,0.9125 c 0.79229,0.7607 2.22606,3.0469 2.22606,3.54954 0,0.0776 -0.23813,0.14108 -0.52917,0.14108 -0.68002,0 -0.67155,0.3183 0.0253,0.9489 1.23243,1.11534 6.58636,8.77989 6.58864,9.43214 0.002,0.54758 -4.79374,-1.89674 -9.02158,-4.59825 -1.10595,-0.70668 -2.07707,-1.28487 -2.15805,-1.28487 -0.081,0 -0.085,0.23812 -0.009,0.52917 0.0887,0.33911 0.009,0.52823 -0.22321,0.52658 -0.6103,-0.004 -2.95886,-1.19723 -3.86732,-1.96426 l -0.85989,-0.72603 v 0.68498 c 0,0.37674 -0.0661,0.68498 -0.14681,0.68498 -0.27824,0 -3.376668,-2.19384 -4.384938,-3.10476 l -1.01043,-0.91286 -0.17314,1.08277 c -0.0952,0.59552 -0.28209,1.08276 -0.41525,1.08276 -0.51993,0 -2.97507,-2.58785 -3.74125,-3.9435 -0.67839,-1.2003 -0.83993,-1.34903 -1.00584,-0.92604 -0.1087,0.27715 -0.20601,0.82431 -0.21624,1.21591 -0.0102,0.39159 -0.13053,0.78117 -0.26734,0.86572 -0.61215,0.37833 -3.72001,-3.29863 -3.72001,-4.4012 0,-0.87097 -0.50244,-0.5073 -0.79375,0.57453 -0.15674,0.58208 -0.38945,1.05833 -0.51713,1.05833 -0.56543,0 -2.65674,-3.27886 -3.45377,-5.41499 -0.23266,-0.62357 -0.34321,-0.7051 -0.53815,-0.39688 -0.13494,0.21336 -0.24717,0.70831 -0.2494,1.0999 -0.007,1.15583 -0.54814,1.19283 -1.49119,0.10189 -0.92395,-1.06885 -1.68786,-2.95538 -1.68786,-4.1683 0,-0.97199 -0.40982,-0.95113 -0.92604,0.0471 -0.22576,0.43657 -0.52406,0.79375 -0.6629,0.79375 -0.35466,0 -1.75638,-2.52439 -2.15914,-3.88847 -0.18491,-0.62624 -0.40316,-1.13861 -0.48501,-1.13861 -0.0818,0 -0.29146,0.37792 -0.46581,0.83982 -0.31593,0.83701 -0.31888,0.83811 -0.88035,0.33073 -0.72845,-0.65828 -1.72141,-2.62529 -2.11568,-4.19108 -0.29994,-1.19116 -0.32779,-1.2177 -0.81506,-0.77672 -0.47887,0.43337 -0.52925,0.43053 -0.9909,-0.0559 -0.2675,-0.28186 -0.80949,-1.37568 -1.20441,-2.43071 -0.69294,-1.85117 -0.98629,-2.21502 -1.33324,-1.65364 -0.29279,0.47375 -0.83428,0.27956 -1.14948,-0.41223 -0.26953,-0.59156 -1.09948,-4.73524 -1.09948,-5.48938 0,-0.15183 -0.28076,-0.0123 -0.62392,0.31009 l -0.62391,0.58614 -0.43442,-0.663 c -0.23893,-0.36465 -0.43442,-0.77117 -0.43442,-0.90337 0,-0.1322 -0.42363,-1.65444 -0.94141,-3.38275 -0.51778,-1.72831 -1.23973,-4.13692 -1.60432,-5.35246 -0.36461,-1.21555 -0.70713,-2.16587 -0.76118,-2.11182 -0.19489,0.19489 -0.90923,7.60348 -1.20757,12.52399 -0.35984,5.93482 -0.18642,10.14852 0.72415,17.59479 0.61078,4.9947 1.1466,17.08152 0.78331,17.66935 -0.0671,0.10862 -0.68087,0.15305 -1.36387,0.0987 l -1.24181,-0.0988 0.11877,-1.88934 c 0.19612,-3.1198 -0.27161,-10.91856 -1.14395,-19.07347 -0.89012,-8.3212 -0.897,-9.70772 -0.0914,-18.40233 0.70873,-7.64861 0.69768,-7.38968 0.27664,-6.4823 -0.20257,0.43657 -0.87131,2.77333 -1.48608,5.1928 -1.30998,5.15551 -1.36371,5.27714 -2.05466,4.65183 -0.60507,-0.54758 -0.85458,-0.35359 -0.85458,0.66443 0,1.17762 -0.77686,4.3191 -1.20471,4.87162 -0.36324,0.46907 -0.40118,0.47067 -0.74269,0.0313 -0.19794,-0.25466 -0.42559,-0.46302 -0.50588,-0.46302 -0.0803,0 -0.59013,1.07156 -1.13299,2.38125 -0.74185,1.78977 -1.10909,2.38125 -1.4785,2.38125 -0.27031,0 -0.49148,-0.11906 -0.49148,-0.26458 0,-0.14552 -0.1786,-0.26458 -0.39688,-0.26458 -0.21828,0 -0.39687,0.23365 -0.39687,0.51924 0,1.41919 -1.922,5.03701 -2.67597,5.03701 -0.13622,0 -0.31912,-0.35719 -0.40643,-0.79375 -0.15241,-0.76206 -0.62177,-1.12617 -0.62177,-0.48235 0,0.60806 -2.10813,4.65579 -2.50391,4.80766 -0.26664,0.10232 -0.53918,-0.11024 -0.80809,-0.63025 -0.53984,-1.04394 -0.79939,-0.98942 -0.87845,0.18451 -0.0898,1.33378 -0.98805,3.32134 -1.89267,4.18801 -0.85458,0.81875 -1.32334,0.69739 -1.32926,-0.34414 -0.002,-0.39159 -0.11446,-0.88654 -0.2494,-1.0999 -0.19487,-0.30812 -0.30507,-0.22649 -0.53576,0.39688 -1.40334,3.79214 -3.96216,6.7126 -3.97734,4.53948 -0.009,-1.30359 -0.45503,-1.34362 -1.0093,-0.0906 -0.59467,1.34433 -3.06915,4.00097 -3.48643,3.74308 -0.1445,-0.0893 -0.27109,-0.48277 -0.28132,-0.87436 -0.0102,-0.3916 -0.10754,-0.93876 -0.21624,-1.21591 -0.16591,-0.42299 -0.32745,-0.27426 -1.00584,0.92604 -0.76618,1.35565 -3.22132,3.9435 -3.74126,3.9435 -0.13315,0 -0.3213,-0.49529 -0.4181,-1.10065 l -0.176,-1.10064 -0.85,0.80383 c -1.06628,1.00836 -4.13609,3.24955 -4.45099,3.24955 -0.12951,0 -0.23548,-0.30824 -0.23548,-0.68498 v -0.68498 l -0.85989,0.72603 c -0.90845,0.76703 -3.25702,1.9599 -3.86732,1.96426 -0.23172,0.002 -0.31189,-0.18747 -0.22321,-0.52658 0.0761,-0.29105 0.0721,-0.52917 -0.009,-0.52917 -0.081,0 -1.0521,0.57819 -2.15804,1.28487 -4.77512,3.05121 -9.25756,5.26619 -8.93007,4.41276 z m 66.19193,-99.55857 -13.39131,-19.24844 -7.83832,-0.13229 -7.83832,-0.13229 -1.35787,-1.78108 c -2.77968,-3.64603 -5.0173,-9.25903 -4.84998,-12.16602 0.10304,-1.79014 0.55899,-1.90677 2.77632,-0.71015 0.90175,0.48664 1.71214,0.81221 1.80086,0.72349 0.0887,-0.0887 -0.50144,-1.33571 -1.31148,-2.77107 -1.97843,-3.50572 -3.6178,-7.74404 -3.78237,-9.7787 -0.15769,-1.94961 10e-4,-2.06069 2.20765,-1.54167 0.86033,0.20238 1.95937,0.36983 2.44231,0.37211 l 0.87807,0.004 -1.30128,-1.52135 c -2.61331,-3.05527 -4.21728,-6.01231 -4.9524,-9.13011 -0.64614,-2.74045 -0.41672,-5.48811 0.45823,-5.48811 0.18668,0 1.35049,0.59256 2.58624,1.31681 1.95516,1.14588 3.17287,1.61026 3.17287,1.20998 0,-0.0655 -0.4178,-0.80962 -0.92845,-1.65365 -2.47748,-4.09496 -5.1139,-13.18785 -4.51528,-15.57296 0.15106,-0.60184 0.28451,-0.68566 0.8967,-0.56323 0.39557,0.0791 1.54883,0.62864 2.56278,1.22115 1.01396,0.59252 2.11088,1.07731 2.43762,1.07731 0.58676,0 0.5845,-0.0138 -0.18442,-1.12447 -0.92244,-1.33244 -1.96888,-4.36456 -2.39698,-6.9454 -0.3342,-2.01476 -0.45758,-8.21812 -0.16919,-8.50651 0.26599,-0.26599 1.36116,0.29118 4.08866,2.08014 1.3491,0.88487 2.50435,1.55741 2.56722,1.49453 0.0629,-0.0629 -0.17755,-0.70532 -0.53429,-1.42765 -0.98735,-1.99924 -1.92092,-6.09043 -2.21456,-9.70487 -0.27221,-3.3506 -0.0784,-6.60716 0.42302,-7.10859 0.35517,-0.35517 1.73459,0.32244 3.76753,1.8507 0.7891,0.59321 1.46039,1.04951 1.49174,1.01399 0.0314,-0.0355 -0.0346,-1.0766 -0.14648,-2.31353 -0.39838,-4.4031 0.6872,-15.08125 1.53321,-15.08125 0.10547,0 0.81526,0.41989 1.5773,0.93307 l 1.38553,0.93307 v -2.26714 c 0,-3.55331 1.11425,-8.181763 2.57538,-10.697893 l 0.68351,-1.17701 1.10332,1.21864 1.10331,1.21866 0.5896,-4.2008 c 0.66906,-4.76697 2.28741,-13.026825 3.47059,-17.71341 1.35606,-5.371357 2.95723,-10.051355 3.43888,-10.051355 1.24745,0 5.85014,18.936315 7.15226,29.425685 l 0.31909,2.57049 1.10998,-1.22601 1.10998,-1.22601 0.56377,0.9122 c 0.75967,1.22918 2.08655,5.26159 2.4281,7.379063 0.15257,0.94589 0.2783,2.64569 0.2794,3.77735 l 0.002,2.05754 1.38553,-0.93307 c 0.76192,-0.51318 1.47171,-0.93307 1.57719,-0.93307 0.95464,0 2.11279,13.96893 1.39074,16.77436 -0.2275,0.88396 -0.21463,0.87939 1.91475,-0.6806 0.75545,-0.55345 1.80428,-1.21167 2.33074,-1.46272 1.19856,-0.57155 1.42266,-0.30729 1.50363,1.77313 0.22804,5.85915 -0.84222,12.51197 -2.46345,15.31303 -0.28435,0.49129 -0.45382,0.95643 -0.37659,1.03366 0.0772,0.0772 1.12778,-0.51667 2.33456,-1.31977 3.03651,-2.02075 3.88975,-2.43954 4.24551,-2.08378 0.37782,0.37782 0.32826,5.91127 -0.0748,8.35573 -0.42483,2.57624 -1.4714,5.61103 -2.39518,6.9454 -0.73978,1.06858 -0.75099,1.12447 -0.22559,1.12447 0.30409,0 1.58911,-0.55704 2.85559,-1.23787 3.07398,-1.65249 3.32828,-1.55608 3.10786,1.17828 -0.3013,3.7376 -2.49321,10.42784 -4.55504,13.90303 -0.50262,0.84718 -0.91386,1.59132 -0.91386,1.65365 0,0.38516 1.16146,-0.0573 3.175,-1.20959 1.27146,-0.7276 2.4494,-1.32291 2.61764,-1.32291 0.84253,0 1.05903,2.79773 0.42469,5.48812 -0.73512,3.1178 -2.33909,6.07484 -4.95239,9.13011 l -1.30128,1.52135 0.87807,-0.009 c 0.48293,-0.005 1.57403,-0.17568 2.42467,-0.37888 2.20578,-0.52692 2.38324,-0.40173 2.22499,1.56973 -0.16099,2.00563 -1.76077,6.12282 -3.79395,9.76416 -0.80191,1.43617 -1.39577,2.67345 -1.31971,2.74951 0.0761,0.0761 0.89298,-0.24878 1.81537,-0.72188 2.43943,-1.25118 2.70751,-1.11887 2.67679,1.32106 -0.0401,3.18194 -2.01423,7.99186 -4.75649,11.58892 l -1.34615,1.76576 -5.07216,0.0719 -5.07218,0.0719 v 9.12241 9.12242 h 3.04271 3.04271 v 10.18645 c 0,5.60256 -0.0515,10.18646 -0.11437,10.18646 -0.0629,0 -6.14046,-8.66179 -13.50568,-19.24843 z"
       id="path826"
       inkscape:connector-curvature="0" />
  </g>
</svg>
